<svg xmlns="http://www.w3.org/2000/svg" width="1600" height="1000" viewBox="0 0 1600 1000">
  <defs>
    <linearGradient id="stone" x1="0" y1="0" x2="1" y2="1">
      <stop offset="0" stop-color="#b1b1ad"/>
      <stop offset=".48" stop-color="#939390"/>
      <stop offset="1" stop-color="#a7a7a3"/>
    </linearGradient>
    <filter id="grain" x="-10%" y="-10%" width="120%" height="120%">
      <feTurbulence
        type="fractalNoise"
        baseFrequency=".008 .018"
        numOctaves="3"
        seed="12"
        result="noise"
      />
      <feColorMatrix
        in="noise"
        type="matrix"
        values="1 0 0 0 0
                0 1 0 0 0
                0 0 1 0 0
                0 0 0 .13 0"
      />
    </filter>
    <filter id="soften" x="-20%" y="-20%" width="140%" height="140%">
      <feGaussianBlur stdDeviation="5"/>
    </filter>
  </defs>

  <rect width="1600" height="1000" fill="url(#stone)"/>
  <rect width="1600" height="1000" filter="url(#grain)" opacity=".55"/>

  <g fill="none" filter="url(#soften)" stroke-linecap="round">
    <path
      d="M-90 750C170 625 176 345 410 281c194-53 265 114 453 65 251-65 223-322 507-381 112-23 226-1 332 45"
      stroke="#e6e6e1"
      stroke-width="11"
      opacity=".28"
    />
    <path
      d="M-90 764C175 642 186 360 419 297c193-52 267 112 454 65 250-64 233-310 508-368 112-24 218-4 325 39"
      stroke="#636461"
      stroke-width="5"
      opacity=".16"
    />
    <path
      d="M130 1080c71-225 280-269 343-459 62-187-57-287 53-426C632 61 862 116 940-51"
      stroke="#deded9"
      stroke-width="8"
      opacity=".23"
    />
    <path
      d="M1190 1090c-56-205 64-300 34-469-29-165-187-200-134-365 48-149 221-194 251-356"
      stroke="#ecece7"
      stroke-width="7"
      opacity=".18"
    />
    <path
      d="M-100 168c184 21 286 173 467 170 179-3 259-169 454-163 193 5 269 190 476 188 134-1 243-80 385-64"
      stroke="#666764"
      stroke-width="4"
      opacity=".11"
    />
  </g>
</svg>
